<?xml version="1.0" encoding="UTF-8"?>
<svg xmlns="http://www.w3.org/2000/svg" xmlns:xlink="http://www.w3.org/1999/xlink" width="504pt" height="504pt" viewBox="0 0 504 504" version="1.1">
<g id="surface280">
<path style=" stroke:none;fill-rule:nonzero;fill:rgb(COLRED%,COLGRN%,COLBLU%);fill-opacity:1;" d="M 430.183594 251.996094 L 430.273438 251.996094 L 430.34375 251.992188 L 430.4375 251.988281 L 430.546875 251.980469 L 430.679688 251.96875 L 430.832031 251.953125 L 431.003906 251.933594 L 431.195312 251.910156 L 431.40625 251.882812 L 431.636719 251.847656 L 431.886719 251.804688 L 432.15625 251.757812 L 432.445312 251.703125 L 432.75 251.640625 L 433.074219 251.566406 L 433.417969 251.488281 L 433.78125 251.398438 L 434.160156 251.300781 L 434.558594 251.191406 L 434.972656 251.070312 L 435.402344 250.9375 L 435.851562 250.796875 L 436.316406 250.640625 L 436.796875 250.472656 L 437.292969 250.292969 L 437.804688 250.101562 L 438.332031 249.890625 L 438.871094 249.671875 L 439.425781 249.433594 L 439.996094 249.183594 L 440.578125 248.914062 L 441.171875 248.632812 L 441.78125 248.332031 L 442.398438 248.015625 L 443.03125 247.683594 L 443.671875 247.332031 L 444.324219 246.964844 L 444.988281 246.578125 L 445.660156 246.171875 L 446.34375 245.75 L 447.03125 245.304688 L 447.730469 244.84375 L 448.4375 244.363281 L 449.148438 243.859375 L 449.871094 243.335938 L 450.59375 242.796875 L 451.324219 242.230469 L 452.058594 241.648438 L 452.800781 241.042969 L 453.542969 240.414062 L 454.289062 239.765625 L 455.035156 239.097656 L 455.785156 238.402344 L 456.535156 237.6875 L 457.289062 236.953125 L 458.039062 236.191406 L 458.789062 235.410156 L 459.539062 234.605469 L 460.285156 233.777344 L 461.03125 232.925781 L 461.769531 232.050781 L 462.507812 231.15625 L 463.238281 230.234375 L 463.96875 229.289062 L 464.6875 228.324219 L 465.402344 227.332031 L 466.109375 226.320312 L 466.808594 225.28125 L 467.5 224.21875 L 468.179688 223.136719 L 468.851562 222.027344 L 469.511719 220.898438 L 470.160156 219.742188 L 470.796875 218.566406 L 471.421875 217.367188 L 472.035156 216.144531 L 472.628906 214.898438 L 473.210938 213.628906 L 473.78125 212.335938 L 474.332031 211.023438 L 474.863281 209.6875 L 475.382812 208.328125 L 475.878906 206.949219 L 476.359375 205.546875 L 476.820312 204.121094 L 477.261719 202.679688 L 477.683594 201.210938 L 478.082031 199.726562 L 478.457031 198.21875 L 478.8125 196.691406 L 479.144531 195.144531 L 479.449219 193.578125 L 479.734375 191.988281 L 479.992188 190.382812 L 480.222656 188.761719 L 480.429688 187.117188 L 480.609375 185.457031 L 480.761719 183.78125 L 480.886719 182.085938 L 480.980469 180.371094 L 481.046875 178.644531 L 481.085938 176.898438 L 481.089844 175.140625 L 481.066406 173.363281 L 481.011719 171.574219 L 480.925781 169.769531 L 480.804688 167.949219 L 480.652344 166.121094 L 480.46875 164.277344 L 480.25 162.417969 L 479.996094 160.550781 L 479.710938 158.671875 L 479.386719 156.78125 L 479.027344 154.882812 L 478.636719 152.972656 L 478.203125 151.050781 L 477.738281 149.125 L 477.234375 147.1875 L 476.691406 145.246094 L 476.113281 143.296875 L 475.496094 141.339844 L 474.839844 139.378906 L 474.148438 137.410156 L 473.414062 135.441406 L 472.640625 133.464844 L 471.828125 131.488281 L 470.976562 129.507812 L 470.085938 127.523438 L 469.152344 125.542969 L 468.179688 123.558594 L 467.164062 121.574219 L 466.109375 119.589844 L 465.011719 117.609375 L 463.875 115.628906 L 462.699219 113.652344 L 461.476562 111.679688 L 460.214844 109.710938 L 458.910156 107.746094 L 457.566406 105.789062 L 456.179688 103.835938 L 454.75 101.890625 L 453.277344 99.953125 L 451.765625 98.023438 L 450.210938 96.101562 L 448.613281 94.191406 L 446.972656 92.292969 L 445.292969 90.402344 L 443.570312 88.527344 L 441.804688 86.664062 L 439.996094 84.8125 L 438.148438 82.976562 L 436.261719 81.152344 L 434.328125 79.347656 L 432.359375 77.554688 L 430.34375 75.78125 L 428.292969 74.027344 L 426.199219 72.289062 L 424.0625 70.570312 L 421.890625 68.871094 L 419.675781 67.191406 L 417.421875 65.535156 L 415.128906 63.898438 L 412.796875 62.285156 L 410.425781 60.695312 L 408.015625 59.128906 L 405.570312 57.585938 L 403.085938 56.070312 L 400.566406 54.578125 L 398.007812 53.113281 L 395.414062 51.675781 L 392.78125 50.265625 L 390.117188 48.886719 L 387.414062 47.535156 L 384.679688 46.210938 L 381.910156 44.921875 L 379.109375 43.660156 L 376.273438 42.429688 L 373.402344 41.234375 L 370.503906 40.070312 L 367.574219 38.9375 L 364.609375 37.839844 L 361.617188 36.777344 L 358.597656 35.75 L 355.546875 34.757812 L 352.464844 33.804688 L 349.359375 32.886719 L 346.226562 32.003906 L 343.066406 31.160156 L 339.878906 30.355469 L 336.667969 29.585938 L 333.433594 28.859375 L 330.175781 28.171875 L 326.894531 27.523438 L 323.59375 26.917969 L 320.265625 26.351562 L 316.921875 25.828125 L 313.558594 25.34375 L 310.175781 24.90625 L 306.773438 24.507812 L 303.351562 24.152344 L 299.917969 23.84375 L 296.464844 23.574219 L 293 23.351562 L 289.519531 23.171875 L 286.027344 23.039062 L 282.519531 22.953125 L 279.003906 22.910156 L 275.476562 22.910156 L 271.9375 22.960938 L 268.394531 23.054688 L 264.839844 23.195312 L 261.277344 23.386719 L 257.710938 23.621094 L 254.136719 23.902344 L 250.5625 24.230469 L 246.980469 24.609375 L 243.398438 25.03125 L 239.816406 25.503906 L 236.230469 26.023438 L 232.648438 26.589844 L 229.066406 27.207031 L 225.484375 27.871094 L 221.90625 28.582031 L 218.335938 29.34375 L 214.765625 30.152344 L 211.207031 31.007812 L 207.652344 31.914062 L 204.105469 32.867188 L 200.566406 33.867188 L 197.039062 34.917969 L 193.523438 36.015625 L 190.019531 37.160156 L 186.527344 38.355469 L 183.050781 39.59375 L 179.585938 40.882812 L 176.136719 42.222656 L 172.707031 43.605469 L 169.292969 45.035156 L 165.898438 46.515625 L 162.523438 48.039062 L 159.171875 49.609375 L 155.835938 51.230469 L 152.527344 52.894531 L 149.238281 54.605469 L 145.976562 56.359375 L 142.738281 58.160156 L 139.523438 60.007812 L 136.339844 61.898438 L 133.183594 63.832031 L 130.054688 65.8125 L 126.953125 67.835938 L 123.886719 69.902344 L 120.847656 72.011719 L 117.84375 74.164062 L 114.871094 76.355469 L 111.933594 78.589844 L 109.03125 80.867188 L 106.164062 83.183594 L 103.335938 85.542969 L 100.542969 87.941406 L 97.789062 90.375 L 95.070312 92.851562 L 92.394531 95.363281 L 89.761719 97.914062 L 87.164062 100.503906 L 84.613281 103.128906 L 82.105469 105.789062 L 79.636719 108.484375 L 77.214844 111.21875 L 74.839844 113.980469 L 72.507812 116.78125 L 70.222656 119.613281 L 67.984375 122.476562 L 65.796875 125.371094 L 63.65625 128.296875 L 61.5625 131.253906 L 59.519531 134.242188 L 57.527344 137.257812 L 55.582031 140.300781 L 53.691406 143.371094 L 51.855469 146.46875 L 50.066406 149.59375 L 48.332031 152.742188 L 46.652344 155.914062 L 45.027344 159.113281 L 43.457031 162.332031 L 41.941406 165.574219 L 40.480469 168.835938 L 39.074219 172.121094 L 37.722656 175.425781 L 36.433594 178.75 L 35.195312 182.089844 L 34.019531 185.449219 L 32.898438 188.824219 L 31.835938 192.214844 L 30.832031 195.621094 L 29.886719 199.039062 L 29 202.472656 L 28.175781 205.917969 L 27.40625 209.375 L 26.699219 212.839844 L 26.054688 216.320312 L 25.464844 219.804688 L 24.9375 223.300781 L 24.472656 226.800781 L 24.066406 230.308594 L 23.722656 233.820312 L 23.4375 237.339844 L 23.214844 240.859375 L 23.050781 244.382812 L 22.949219 247.910156 L 22.910156 251.4375 L 22.929688 254.964844 L 23.011719 258.488281 L 23.15625 262.015625 L 23.359375 265.535156 L 23.625 269.054688 L 23.949219 272.570312 L 24.335938 276.078125 L 24.785156 279.582031 L 25.292969 283.078125 L 25.859375 286.566406 L 26.488281 290.046875 L 27.175781 293.519531 L 27.925781 296.976562 L 28.730469 300.425781 L 29.597656 303.863281 L 30.523438 307.289062 L 31.511719 310.699219 L 32.554688 314.09375 L 33.65625 317.472656 L 34.816406 320.839844 L 36.03125 324.183594 L 37.304688 327.515625 L 38.636719 330.824219 L 40.023438 334.113281 L 41.46875 337.386719 L 42.96875 340.632812 L 44.519531 343.859375 L 46.128906 347.066406 L 47.792969 350.246094 L 49.507812 353.402344 L 51.277344 356.535156 L 53.101562 359.640625 L 54.976562 362.71875 L 56.902344 365.773438 L 58.878906 368.796875 L 60.90625 371.792969 L 62.980469 374.757812 L 65.109375 377.695312 L 67.285156 380.601562 L 69.503906 383.472656 L 71.777344 386.316406 L 74.09375 389.125 L 76.453125 391.902344 L 78.863281 394.644531 L 81.3125 397.351562 L 83.808594 400.023438 L 86.347656 402.660156 L 88.929688 405.257812 L 91.550781 407.824219 L 94.214844 410.347656 L 96.917969 412.835938 L 99.660156 415.285156 L 102.441406 417.695312 L 105.261719 420.066406 L 108.117188 422.394531 L 111.007812 424.683594 L 113.933594 426.933594 L 116.894531 429.140625 L 119.886719 431.304688 L 122.914062 433.425781 L 125.972656 435.507812 L 129.0625 437.542969 L 132.183594 439.539062 L 135.332031 441.488281 L 138.507812 443.390625 L 141.710938 445.253906 L 144.941406 447.066406 L 148.195312 448.835938 L 151.476562 450.5625 L 154.78125 452.242188 L 158.105469 453.875 L 161.453125 455.460938 L 164.824219 457 L 168.210938 458.492188 L 171.617188 459.941406 L 175.042969 461.339844 L 178.484375 462.691406 L 181.945312 463.996094 L 185.417969 465.25 L 188.90625 466.460938 L 192.40625 467.621094 L 195.917969 468.734375 L 199.441406 469.800781 L 202.976562 470.816406 L 206.519531 471.785156 L 210.074219 472.703125 L 213.632812 473.578125 L 217.199219 474.398438 L 220.769531 475.175781 L 224.34375 475.902344 L 227.925781 476.582031 L 231.507812 477.214844 L 235.089844 477.796875 L 238.675781 478.332031 L 242.257812 478.820312 L 245.839844 479.257812 L 249.421875 479.648438 L 253 479.992188 L 256.574219 480.292969 L 260.140625 480.542969 L 263.707031 480.742188 L 267.261719 480.898438 L 270.808594 481.011719 L 274.351562 481.074219 L 277.882812 481.089844 L 281.402344 481.0625 L 284.910156 480.988281 L 288.410156 480.871094 L 291.894531 480.707031 L 295.363281 480.496094 L 298.820312 480.242188 L 302.261719 479.945312 L 305.683594 479.605469 L 309.09375 479.222656 L 312.480469 478.796875 L 315.851562 478.328125 L 319.203125 477.816406 L 322.535156 477.261719 L 325.84375 476.667969 L 329.132812 476.035156 L 332.398438 475.359375 L 335.640625 474.644531 L 338.859375 473.890625 L 342.054688 473.097656 L 345.222656 472.265625 L 348.363281 471.394531 L 351.480469 470.488281 L 354.566406 469.542969 L 357.628906 468.5625 L 360.660156 467.546875 L 363.660156 466.496094 L 366.632812 465.410156 L 369.574219 464.289062 L 372.484375 463.136719 L 375.363281 461.949219 L 378.207031 460.730469 L 381.023438 459.480469 L 383.800781 458.199219 L 386.546875 456.886719 L 389.257812 455.542969 L 391.9375 454.171875 L 394.578125 452.769531 L 397.183594 451.34375 L 399.753906 449.886719 L 402.285156 448.402344 L 404.78125 446.894531 L 407.242188 445.363281 L 409.664062 443.800781 L 412.046875 442.21875 L 414.390625 440.613281 L 416.695312 438.984375 L 418.960938 437.335938 L 421.1875 435.664062 L 423.375 433.96875 L 425.523438 432.257812 L 427.628906 430.523438 L 429.695312 428.773438 L 431.722656 427.007812 L 433.707031 425.222656 L 435.648438 423.421875 L 437.550781 421.601562 L 439.414062 419.769531 L 441.234375 417.925781 L 443.011719 416.0625 L 444.746094 414.191406 L 446.441406 412.304688 L 448.09375 410.410156 L 449.707031 408.503906 L 451.273438 406.585938 L 452.800781 404.660156 L 454.285156 402.722656 L 455.726562 400.78125 L 457.128906 398.832031 L 458.488281 396.875 L 459.804688 394.910156 L 461.078125 392.945312 L 462.3125 390.972656 L 463.503906 388.996094 L 464.65625 387.019531 L 465.765625 385.035156 L 466.832031 383.054688 L 467.859375 381.070312 L 468.847656 379.085938 L 469.792969 377.101562 L 470.695312 375.121094 L 471.5625 373.140625 L 472.386719 371.160156 L 473.171875 369.183594 L 473.917969 367.210938 L 474.625 365.246094 L 475.292969 363.28125 L 475.921875 361.324219 L 476.511719 359.371094 L 477.066406 357.425781 L 477.582031 355.488281 L 478.058594 353.558594 L 478.5 351.636719 L 478.90625 349.722656 L 479.277344 347.820312 L 479.609375 345.925781 L 479.910156 344.042969 L 480.171875 342.171875 L 480.402344 340.308594 L 480.597656 338.460938 L 480.761719 336.625 L 480.890625 334.804688 L 480.988281 332.996094 L 481.050781 331.199219 L 481.085938 329.421875 L 481.089844 327.65625 L 481.0625 325.90625 L 481.003906 324.171875 L 480.917969 322.457031 L 480.804688 320.753906 L 480.660156 319.070312 L 480.488281 317.40625 L 480.292969 315.757812 L 480.066406 314.125 L 479.816406 312.515625 L 479.542969 310.921875 L 479.242188 309.347656 L 478.917969 307.796875 L 478.574219 306.261719 L 478.203125 304.75 L 477.8125 303.253906 L 477.398438 301.78125 L 476.964844 300.332031 L 476.507812 298.902344 L 476.035156 297.492188 L 475.542969 296.105469 L 475.03125 294.738281 L 474.503906 293.394531 L 473.957031 292.074219 L 473.394531 290.777344 L 472.816406 289.5 L 472.226562 288.246094 L 471.617188 287.015625 L 471 285.808594 L 470.363281 284.625 L 469.71875 283.464844 L 469.0625 282.324219 L 468.394531 281.210938 L 467.71875 280.117188 L 467.03125 279.050781 L 466.332031 278.003906 L 465.628906 276.984375 L 464.917969 275.984375 L 464.199219 275.011719 L 463.472656 274.058594 L 462.742188 273.132812 L 462.007812 272.226562 L 461.265625 271.34375 L 460.523438 270.488281 L 459.777344 269.652344 L 459.027344 268.839844 L 458.277344 268.050781 L 457.527344 267.285156 L 456.777344 266.539062 L 456.023438 265.816406 L 455.273438 265.117188 L 454.527344 264.441406 L 453.777344 263.785156 L 453.035156 263.152344 L 452.292969 262.539062 L 451.558594 261.949219 L 450.828125 261.378906 L 450.101562 260.828125 L 449.378906 260.300781 L 448.664062 259.792969 L 447.957031 259.304688 L 447.253906 258.835938 L 446.5625 258.386719 L 445.878906 257.957031 L 445.203125 257.546875 L 444.535156 257.152344 L 443.878906 256.78125 L 443.234375 256.421875 L 442.597656 256.085938 L 441.976562 255.761719 L 441.363281 255.457031 L 440.765625 255.171875 L 440.179688 254.898438 L 439.605469 254.640625 L 439.046875 254.398438 L 438.5 254.171875 L 437.96875 253.960938 L 437.453125 253.761719 L 436.953125 253.578125 L 436.46875 253.40625 L 436 253.246094 L 435.546875 253.101562 L 435.109375 252.964844 L 434.6875 252.84375 L 434.285156 252.730469 L 433.902344 252.628906 L 433.53125 252.535156 L 433.183594 252.453125 L 432.851562 252.378906 L 432.539062 252.3125 L 432.246094 252.253906 L 431.96875 252.207031 L 431.714844 252.164062 L 431.476562 252.125 L 431.261719 252.09375 L 431.0625 252.070312 L 430.882812 252.046875 L 430.726562 252.03125 L 430.589844 252.019531 L 430.46875 252.011719 L 430.371094 252.003906 L 430.292969 252 L 430.199219 252 Z M 430.183594 251.996094 "/>
</g>
</svg>
